<svg preserveAspectRatio="xMidYMid meet" data-bbox="-0.02 -0.01 416.838 139.01" viewBox="-0.02 -0.01 416.838 139.01" xmlns="http://www.w3.org/2000/svg" data-type="color" role="img" aria-labelledby="comp-kf3rwuf4-svgtitle"><title id="comp-kf3rwuf4-svgtitle"></title>
    <g>
        <g>
            <path d="M76 5.56c5.79 36.6-1.6 73.28-12.39 108.92C53 79.39 47.1 62.21 44.28 54.46 50.75 37.77 58 21.1 67.28 6l1-1.67c5.41-9.2 7.19-1.22 7.54.77z" fill="#50e3c2" data-color="1"/>
            <path d="M183.52 26.21A7.52 7.52 0 0 1 188 22.5a25.31 25.31 0 0 1 7.5-.95 27 27 0 0 1 7.26.79 11.64 11.64 0 0 1 4.1 1.89 6.52 6.52 0 0 1 2 3.32 24.9 24.9 0 0 1 .94 8.05v87.62a47.53 47.53 0 0 1-.23 5.52 12.84 12.84 0 0 1-1.5 4.11q-2.22 4.26-12.32 4.26-6.15 0-8.52-1a9.18 9.18 0 0 1-3.95-3q-35.52-47.35-46.73-61.88v51.94a47.53 47.53 0 0 1-.23 5.52 12.84 12.84 0 0 1-1.5 4.11q-2.22 4.26-12.32 4.26-9.78 0-12-4.26a12.71 12.71 0 0 1-1.5-4.26 50.46 50.46 0 0 1-.23-5.53V35q0-6 1.5-8.76a7.52 7.52 0 0 1 4.5-3.71 26.28 26.28 0 0 1 7.73-.95 25.84 25.84 0 0 1 7.5.87 9.81 9.81 0 0 1 3.87 2 42.47 42.47 0 0 1 3.63 4.11Q170.8 73.8 182 88.33V35q0-6 1.52-8.79z" fill="#324158" data-color="2"/>
            <path d="M282.74 67.65h27.78q8.53.31 10.42 4.42 1.57 3 1.58 8.84v34.73q0 5.06-4.42 9.63Q304.84 139 278.32 139q-23.53 0-40.89-17.76t-17.37-42.86q0-25.09 17.68-41.91t41.68-16.81q18.58 0 35.21 12.34 4.26 3.16 4.26 7t-3.63 8.92q-6.17 8.37-11.21 8.37-3 0-9.63-4.34a28.2 28.2 0 0 0-15.79-4.34A30.86 30.86 0 0 0 257.32 56Q248 64.5 248 78.15a31.68 31.68 0 0 0 9.47 23.2q9.47 9.56 21.47 9.55a40.87 40.87 0 0 0 15.63-2.84V90.85h-12.46c-3.27 0-5.58-.42-6.95-1.26a5.86 5.86 0 0 1-2.68-3.71 27.09 27.09 0 0 1-.64-6.63 25.79 25.79 0 0 1 .71-6.71 5.23 5.23 0 0 1 2.61-3.47 17 17 0 0 1 7.58-1.42z" fill="#324158" data-color="2"/>
            <path d="M336.88 121.09q-4.1-5.06-4.1-9.08t6.79-10.66q3.94-3.78 8.37-3.79t12.31 7.9a24 24 0 0 0 6.31 5.13 15 15 0 0 0 7.58 2.44q14.69 0 14.68-12 0-3.63-4-6.08a29.47 29.47 0 0 0-10-3.55 85.63 85.63 0 0 1-12.94-3.56 84.87 84.87 0 0 1-12.95-5.76 26.12 26.12 0 0 1-10-10.5q-4-7.17-4-17.28 0-13.89 10.34-24.23t28.18-10.35a57.69 57.69 0 0 1 17.29 2.45q7.82 2.45 10.81 5l3.95 3c3.26 3.06 4.89 5.63 4.89 7.74s-1.26 5-3.79 8.68q-5.37 7.91-11.05 7.9c-2.21 0-4.94-1.06-8.21-3.16a19.21 19.21 0 0 1-1.81-1.58 25.07 25.07 0 0 0-2.45-2 15.8 15.8 0 0 0-8.44-2.06 14.21 14.21 0 0 0-8.64 2.38 7.91 7.91 0 0 0-3.39 6.79 8.13 8.13 0 0 0 4 7 25 25 0 0 0 10 3.63 117 117 0 0 1 13.1 2.92 81.29 81.29 0 0 1 13.1 4.81q6 2.85 10 9.87t4 17.29a38.37 38.37 0 0 1-4.1 18.07 31.27 31.27 0 0 1-10.74 12.08 49 49 0 0 1-27.31 8.37 53 53 0 0 1-14-1.82 37.92 37.92 0 0 1-10.73-4.5q-8.37-5.06-11.68-9.79z" fill="#324158" data-color="2"/>
            <path d="M51.82 137a5.62 5.62 0 0 0 3.61-1.07 9.06 9.06 0 0 0 2.45-2.71l-.34-1.2c-17.95-63.88-22.7-74.58-22.7-74.58C28 39.41 20.26 21.32 10.14 5.14l-.5-.8C3.51-6.08 2 5.53 2 5.53l-.12.72C-4.21 46.11 5.23 86 17.58 124.63l.33.8c1.6 4.34 3.82 7.85 6.11 9.83l.34.28a5.51 5.51 0 0 0 .47.36 5.6 5.6 0 0 0 3.61 1.1z" fill="#324158" data-color="2"/>
        </g>
    </g>
</svg>